<svg xmlns="http://www.w3.org/2000/svg" 
     xmlns:xlink="http://www.w3.org/1999/xlink"
     style="isolation:isolate" 
     viewBox="0 0 512 512" width="512pt" height="512pt">

  <style>
    @media (prefers-color-scheme: dark) {
      
      path {
        fill: rgb(190, 27, 27)
      }
    }
  </style>
  <path
    d=" M 457.353 174.657 L 457.353 352.315 L 424.386 352.315 L 424.386 237.633 L 366.379 346.541 L 366.379 346.541 Q 364.237 350.703 360.4 352.85 L 360.4 352.85 L 360.4 352.85 Q 356.562 355 352.159 355 L 352.159 355 L 352.159 355 Q 347.882 355 344.168 352.85 L 344.168 352.85 L 344.168 352.85 Q 340.457 350.703 338.319 346.541 L 338.319 346.541 L 280.059 237.633 L 280.059 352.315 L 247.341 352.315 L 247.341 174.657 L 247.341 174.657 Q 247.341 168.614 250.676 163.914 L 250.676 163.914 L 250.676 163.914 Q 254.01 159.213 259.419 157.601 L 259.419 157.601 L 259.419 157.601 Q 262.065 156.928 264.706 157.13 L 264.706 157.13 L 264.706 157.13 Q 267.347 157.332 269.803 158.338 L 269.803 158.338 L 269.803 158.338 Q 272.254 159.348 274.27 161.162 L 274.27 161.162 L 274.27 161.162 Q 276.281 162.971 277.667 165.525 L 277.667 165.525 L 352.159 303.702 L 426.651 165.525 L 426.651 165.525 Q 429.545 160.421 434.642 158.275 L 434.642 158.275 L 434.642 158.275 Q 439.738 156.124 445.275 157.601 L 445.275 157.601 L 445.275 157.601 Q 450.557 159.213 453.955 163.914 L 453.955 163.914 L 453.955 163.914 Q 457.353 168.614 457.353 174.657 L 457.353 174.657 Z "
    fill="rgb(240,10,10)" />
  <path
      d=" M 235.089 256.031 L 235.089 334.725 L 235.089 334.725 Q 235.089 338.483 233.83 341.706 L 233.83 341.706 L 233.83 341.706 Q 232.571 344.93 230.369 347.278 L 230.369 347.278 L 230.369 347.278 Q 228.167 349.63 225.15 350.973 L 225.15 350.973 L 225.15 350.973 Q 222.128 352.315 218.604 352.315 L 218.604 352.315 L 100.576 352.315 L 100.576 352.315 Q 96.045 352.315 90.822 351.175 L 90.822 351.175 L 90.822 351.175 Q 85.603 350.03 80.506 347.615 L 80.506 347.615 L 80.506 347.615 Q 75.41 345.199 70.753 341.37 L 70.753 341.37 L 70.753 341.37 Q 66.1 337.544 62.512 332.103 L 62.512 332.103 L 62.512 332.103 Q 58.924 326.666 56.786 319.483 L 56.786 319.483 L 56.786 319.483 Q 54.647 312.299 54.647 303.302 L 54.647 303.302 L 54.647 208.765 L 54.647 208.765 Q 54.647 203.93 55.717 198.358 L 55.717 198.358 L 55.717 198.358 Q 56.786 192.782 59.051 187.345 L 59.051 187.345 L 59.051 187.345 Q 61.316 181.908 64.967 176.938 L 64.967 176.938 L 64.967 176.938 Q 68.614 171.968 73.711 168.143 L 73.711 168.143 L 73.711 168.143 Q 78.807 164.314 85.476 162.033 L 85.476 162.033 L 85.476 162.033 Q 92.145 159.752 100.576 159.752 L 100.576 159.752 L 233.58 159.752 L 233.58 194.663 L 100.576 194.663 L 100.576 194.663 Q 94.156 194.663 90.763 198.291 L 90.763 198.291 L 90.763 198.291 Q 87.365 201.914 87.365 209.034 L 87.365 209.034 L 87.365 303.302 L 87.365 303.302 Q 87.365 310.014 90.822 313.709 L 90.822 313.709 L 90.822 313.709 Q 94.283 317.4 100.576 317.4 L 100.576 317.4 L 202.372 317.4 L 202.372 273.622 L 115.299 273.622 L 115.299 238.441 L 218.604 238.441 L 218.604 238.441 Q 222.128 238.441 225.15 239.851 L 225.15 239.851 L 225.15 239.851 Q 228.167 241.261 230.369 243.676 L 230.369 243.676 L 230.369 243.676 Q 232.571 246.096 233.83 249.252 L 233.83 249.252 L 233.83 249.252 Q 235.089 252.408 235.089 256.031 L 235.089 256.031 Z "
      fill="rgb(240,10,10)" />


</svg>