<?xml version="1.0" encoding="UTF-8" standalone="no"?>
<!-- Generator: Gravit.io --><svg xmlns="http://www.w3.org/2000/svg" xmlns:xlink="http://www.w3.org/1999/xlink"
  style="isolation:isolate" viewBox="0 0 512 512" width="512pt" height="512pt">
  <defs>
    <clipPath id="_clipPath_fmnIGyCitwjl4MojRjPkOmtli7JJhaah">
      <rect width="512" height="512" />
    </clipPath>
  </defs>
  <g clip-path="url(#_clipPath_fmnIGyCitwjl4MojRjPkOmtli7JJhaah)">
    <path
      d="M 54.845 0 L 457.155 0 C 484.665 0 507 22.335 507 49.845 L 507 462.155 C 507 489.665 484.665 512 457.155 512 L 54.845 512 C 27.335 512 5 489.665 5 462.155 L 5 49.845 C 5 22.335 27.335 0 54.845 0 Z"
      style="stroke:none;fill:#EBEBEB;stroke-miterlimit:10;" />
    <path
      d="M 54.845 0 L 457.155 0 C 484.665 0 507 22.335 507 49.845 L 507 462.155 C 507 489.665 484.665 512 457.155 512 L 54.845 512 C 27.335 512 5 489.665 5 462.155 L 5 49.845 C 5 22.335 27.335 0 54.845 0 Z"
      style="fill:none;stroke:#000000;stroke-width:2;stroke-linecap:round;stroke-miterlimit:2;" />
    <g>
      <path
        d=" M 483 403.397 L 483 403.397 L 483 403.397 Q 483 408.831 481.745 413.17 L 481.745 413.17 L 481.745 413.17 Q 480.491 417.508 478.423 420.792 L 478.423 420.792 L 478.423 420.792 Q 476.355 424.079 473.625 426.389 L 473.625 426.389 L 473.625 426.389 Q 470.893 428.702 467.902 430.161 L 467.902 430.161 L 467.902 430.161 Q 464.912 431.62 461.848 432.311 L 461.848 432.311 L 461.848 432.311 Q 458.785 433 456.053 433 L 456.053 433 L 404.078 433 L 404.078 411.912 L 455.904 411.912 L 455.904 411.912 Q 459.819 411.912 461.81 409.723 L 461.81 409.723 L 461.81 409.723 Q 463.804 407.532 463.804 403.397 L 463.804 403.397 L 463.804 403.397 Q 463.437 394.961 456.053 394.961 L 456.053 394.961 L 426.299 394.961 L 426.299 394.961 Q 419.952 394.961 415.521 392.529 L 415.521 392.529 L 415.521 392.529 Q 411.093 390.094 408.323 386.444 L 408.323 386.444 L 408.323 386.444 Q 405.556 382.794 404.336 378.577 L 404.336 378.577 L 404.336 378.577 Q 403.119 374.361 403.119 370.711 L 403.119 370.711 L 403.119 370.711 Q 403.119 363.655 405.407 358.829 L 405.407 358.829 L 405.407 358.829 Q 407.696 354.002 411.165 351.003 L 411.165 351.003 L 411.165 351.003 Q 414.636 348.001 418.697 346.662 L 418.697 346.662 L 418.697 346.662 Q 422.756 345.325 426.299 345.325 L 426.299 345.325 L 473.476 345.325 L 473.476 366.413 L 426.448 366.413 L 426.448 366.413 Q 424.97 366.413 424.122 366.776 L 424.122 366.776 L 424.122 366.776 Q 423.274 367.142 422.868 367.75 L 422.868 367.75 L 422.868 367.75 Q 422.461 368.357 422.387 369.049 L 422.387 369.049 L 422.387 369.049 Q 422.315 369.737 422.315 370.386 L 422.315 370.386 L 422.315 370.386 Q 422.387 371.684 422.756 372.414 L 422.756 372.414 L 422.756 372.414 Q 423.126 373.143 423.679 373.469 L 423.679 373.469 L 423.679 373.469 Q 424.234 373.792 424.936 373.832 L 424.936 373.832 L 424.936 373.832 Q 425.635 373.873 426.299 373.873 L 426.299 373.873 L 456.053 373.873 L 456.053 373.873 Q 463.437 373.873 468.604 376.793 L 468.604 376.793 L 468.604 376.793 Q 473.771 379.714 476.945 384.134 L 476.945 384.134 L 476.945 384.134 Q 480.121 388.554 481.559 393.744 L 481.559 393.744 L 481.559 393.744 Q 483 398.936 483 403.397 Z "
        fill="rgb(0,0,0)" />
      <path
        d=" M 394.682 345.325 L 394.682 366.413 L 361.165 366.413 L 361.165 433 L 341.748 433 L 341.748 366.413 L 316.794 366.413 L 316.794 345.325 L 341.748 345.325 L 341.748 316.695 L 361.165 316.695 L 361.165 345.325 L 394.682 345.325 Z "
        fill="rgb(0,0,0)" />
      <path
        d=" M 307.045 345.325 L 307.045 366.413 L 263.858 366.413 L 263.858 366.413 Q 259.945 366.413 257.952 368.561 L 257.952 368.561 L 257.952 368.561 Q 255.958 370.711 255.958 374.846 L 255.958 374.846 L 255.958 433 L 236.762 433 L 236.762 374.846 L 236.762 374.846 Q 236.762 369.412 238.017 365.114 L 238.017 365.114 L 238.017 365.114 Q 239.271 360.816 241.376 357.53 L 241.376 357.53 L 241.376 357.53 Q 243.481 354.246 246.211 351.935 L 246.211 351.935 L 246.211 351.935 Q 248.944 349.623 251.934 348.164 L 251.934 348.164 L 251.934 348.164 Q 254.924 346.702 257.989 346.013 L 257.989 346.013 L 257.989 346.013 Q 261.051 345.325 263.709 345.325 L 263.709 345.325 L 307.045 345.325 Z "
        fill="rgb(0,0,0)" />
      <path
        d=" M 223.063 374.361 L 223.063 403.964 L 223.063 403.964 Q 223.063 408.343 221.66 413.411 L 221.66 413.411 L 221.66 413.411 Q 220.257 418.482 217.12 422.821 L 217.12 422.821 L 217.12 422.821 Q 213.981 427.159 208.925 430.08 L 208.925 430.08 L 208.925 430.08 Q 203.867 433 196.632 433 L 196.632 433 L 162.006 433 L 162.006 433 Q 158.019 433 153.405 431.46 L 153.405 431.46 L 153.405 431.46 Q 148.791 429.917 144.841 426.47 L 144.841 426.47 L 144.841 426.47 Q 140.891 423.024 138.235 417.468 L 138.235 417.468 L 138.235 417.468 Q 135.577 411.912 135.577 403.964 L 135.577 403.964 L 135.577 403.964 Q 135.577 399.584 136.978 394.473 L 136.978 394.473 L 136.978 394.473 Q 138.382 389.364 141.521 385.026 L 141.521 385.026 L 141.521 385.026 Q 144.657 380.687 149.715 377.767 L 149.715 377.767 L 149.715 377.767 Q 154.771 374.846 162.006 374.846 L 162.006 374.846 L 196.632 374.846 L 196.632 394.961 L 162.006 394.961 L 162.006 394.961 Q 158.094 394.961 155.954 397.597 L 155.954 397.597 L 155.954 397.597 Q 153.812 400.233 153.812 404.126 L 153.812 404.126 L 153.812 404.126 Q 153.812 408.262 156.286 410.575 L 156.286 410.575 L 156.286 410.575 Q 158.758 412.885 162.155 412.885 L 162.155 412.885 L 196.632 412.885 L 196.632 412.885 Q 200.545 412.885 202.687 410.29 L 202.687 410.29 L 202.687 410.29 Q 204.827 407.695 204.827 403.801 L 204.827 403.801 L 204.827 374.361 L 204.827 374.361 Q 204.827 370.223 202.501 367.791 L 202.501 367.791 L 202.501 367.791 Q 200.175 365.358 196.632 365.358 L 196.632 365.358 L 154.476 365.358 L 154.476 345.325 L 196.632 345.325 L 196.632 345.325 Q 200.619 345.325 205.233 346.865 L 205.233 346.865 L 205.233 346.865 Q 209.848 348.405 213.797 351.854 L 213.797 351.854 L 213.797 351.854 Q 217.747 355.301 220.405 360.857 L 220.405 360.857 L 220.405 360.857 Q 223.063 366.413 223.063 374.361 L 223.063 374.361 Z "
        fill="rgb(0,0,0)" />
      <path
        d=" M 134.797 355.786 L 134.797 365.358 L 134.797 365.358 Q 134.797 372.576 133.173 378.252 L 133.173 378.252 L 133.173 378.252 Q 131.549 383.93 128.779 388.269 L 128.779 388.269 L 128.779 388.269 Q 126.01 392.61 122.392 395.691 L 122.392 395.691 L 122.392 395.691 Q 118.774 398.774 114.825 400.721 L 114.825 400.721 L 114.825 400.721 Q 110.875 402.665 106.853 403.557 L 106.853 403.557 L 106.853 403.557 Q 102.829 404.449 99.286 404.449 L 99.286 404.449 L 55.875 404.449 L 55.875 383.363 L 99.286 383.363 L 99.286 383.363 Q 102.975 383.038 105.965 381.701 L 105.965 381.701 L 105.965 381.701 Q 108.956 380.362 111.098 378.092 L 111.098 378.092 L 111.098 378.092 Q 113.238 375.82 114.42 372.617 L 114.42 372.617 L 114.42 372.617 Q 115.601 369.412 115.601 365.358 L 115.601 365.358 L 115.601 355.786 L 115.601 355.786 Q 115.231 351.813 114.051 348.486 L 114.051 348.486 L 114.051 348.486 Q 112.868 345.162 110.838 342.811 L 110.838 342.811 L 110.838 342.811 Q 108.809 340.457 105.928 339.12 L 105.928 339.12 L 105.928 339.12 Q 103.05 337.781 99.286 337.781 L 99.286 337.781 L 56.021 337.781 L 56.021 337.781 Q 52.183 337.781 50.19 339.972 L 50.19 339.972 L 50.19 339.972 Q 48.196 342.16 48.196 346.298 L 48.196 346.298 L 48.196 433 L 29 433 L 29 346.298 L 29 346.298 Q 29 338.187 31.695 332.509 L 31.695 332.509 L 31.695 332.509 Q 34.39 326.831 38.414 323.344 L 38.414 323.344 L 38.414 323.344 Q 42.439 319.857 47.162 318.276 L 47.162 318.276 L 47.162 318.276 Q 51.888 316.695 55.875 316.695 L 55.875 316.695 L 99.286 316.695 L 99.286 316.695 Q 105.782 316.695 110.949 318.52 L 110.949 318.52 L 110.949 318.52 Q 116.116 320.342 120.066 323.385 L 120.066 323.385 L 120.066 323.385 Q 124.016 326.427 126.786 330.4 L 126.786 330.4 L 126.786 330.4 Q 129.555 334.375 131.363 338.714 L 131.363 338.714 L 131.363 338.714 Q 133.173 343.052 133.984 347.472 L 133.984 347.472 L 133.984 347.472 Q 134.797 351.895 134.797 355.786 L 134.797 355.786 Z "
        fill="rgb(0,0,0)" />
    </g>
    <g>
      <path
        d=" M 483 70.625 L 483 278.853 L 445.834 278.853 L 445.834 144.438 L 380.439 272.086 L 380.439 272.086 Q 378.024 276.964 373.698 279.48 L 373.698 279.48 L 373.698 279.48 Q 369.372 282 364.407 282 L 364.407 282 L 364.407 282 Q 359.586 282 355.398 279.48 L 355.398 279.48 L 355.398 279.48 Q 351.215 276.964 348.804 272.086 L 348.804 272.086 L 283.124 144.438 L 283.124 278.853 L 246.239 278.853 L 246.239 70.625 L 246.239 70.625 Q 246.239 63.542 249.998 58.033 L 249.998 58.033 L 249.998 58.033 Q 253.757 52.524 259.855 50.634 L 259.855 50.634 L 259.855 50.634 Q 262.837 49.845 265.815 50.082 L 265.815 50.082 L 265.815 50.082 Q 268.793 50.319 271.561 51.498 L 271.561 51.498 L 271.561 51.498 Q 274.324 52.681 276.597 54.807 L 276.597 54.807 L 276.597 54.807 Q 278.865 56.928 280.427 59.922 L 280.427 59.922 L 364.407 221.875 L 448.387 59.922 L 448.387 59.922 Q 451.651 53.939 457.397 51.424 L 457.397 51.424 L 457.397 51.424 Q 463.142 48.903 469.384 50.634 L 469.384 50.634 L 469.384 50.634 Q 475.339 52.524 479.17 58.033 L 479.17 58.033 L 479.17 58.033 Q 483 63.542 483 70.625 L 483 70.625 Z "
        fill="rgb(240,10,10)" />
      <path
        d=" M 232.426 166.002 L 232.426 258.236 L 232.426 258.236 Q 232.426 262.641 231.006 266.419 L 231.006 266.419 L 231.006 266.419 Q 229.586 270.197 227.104 272.949 L 227.104 272.949 L 227.104 272.949 Q 224.622 275.706 221.22 277.28 L 221.22 277.28 L 221.22 277.28 Q 217.814 278.853 213.84 278.853 L 213.84 278.853 L 80.778 278.853 L 80.778 278.853 Q 75.671 278.853 69.782 277.516 L 69.782 277.516 L 69.782 277.516 Q 63.898 276.175 58.153 273.344 L 58.153 273.344 L 58.153 273.344 Q 52.407 270.512 47.157 266.024 L 47.157 266.024 L 47.157 266.024 Q 41.911 261.541 37.866 255.163 L 37.866 255.163 L 37.866 255.163 Q 33.822 248.791 31.411 240.371 L 31.411 240.371 L 31.411 240.371 Q 29 231.952 29 221.406 L 29 221.406 L 29 110.602 L 29 110.602 Q 29 104.934 30.205 98.404 L 30.205 98.404 L 30.205 98.404 Q 31.411 91.869 33.964 85.496 L 33.964 85.496 L 33.964 85.496 Q 36.518 79.123 40.634 73.299 L 40.634 73.299 L 40.634 73.299 Q 44.746 67.474 50.492 62.99 L 50.492 62.99 L 50.492 62.99 Q 56.237 58.502 63.755 55.828 L 63.755 55.828 L 63.755 55.828 Q 71.274 53.155 80.778 53.155 L 80.778 53.155 L 230.725 53.155 L 230.725 94.074 L 80.778 94.074 L 80.778 94.074 Q 73.541 94.074 69.715 98.325 L 69.715 98.325 L 69.715 98.325 Q 65.885 102.572 65.885 110.917 L 65.885 110.917 L 65.885 221.406 L 65.885 221.406 Q 65.885 229.273 69.782 233.604 L 69.782 233.604 L 69.782 233.604 Q 73.684 237.93 80.778 237.93 L 80.778 237.93 L 195.541 237.93 L 195.541 186.619 L 97.377 186.619 L 97.377 145.384 L 213.84 145.384 L 213.84 145.384 Q 217.814 145.384 221.22 147.037 L 221.22 147.037 L 221.22 147.037 Q 224.622 148.689 227.104 151.52 L 227.104 151.52 L 227.104 151.52 Q 229.586 154.356 231.006 158.056 L 231.006 158.056 L 231.006 158.056 Q 232.426 161.755 232.426 166.002 L 232.426 166.002 Z "
        fill="rgb(240,10,10)" />
    </g>
  </g>
</svg>