<svg xmlns="http://www.w3.org/2000/svg" xmlns:xlink="http://www.w3.org/1999/xlink" style="isolation:isolate"
viewBox="0 0 300 50" width="300pt" height="50pt">
  <style>
    .G, .M {
        fill: hsl(0, 92%, 49%)
    }
    .P, .a, .r, .t, .s {
      fill: hsl(0, 92%, 5%)
    }

    @media screen and (prefers-color-scheme: dark) {
      .G, .M {
        fill: hsl(0, 80%, 45%);
      }
      .P, .a, .r, .t, .s {
        fill: hsl(0, 100%, 98%)
      }
    }
  </style>
  <g>
    <path class="G"
      d=" M 45.566 25.008 L 45.566 44.88 L 45.566 44.88 Q 45.566 45.829 45.248 46.643 L 45.248 46.643 L 45.248 46.643 Q 44.93 47.457 44.374 48.05 L 44.374 48.05 L 44.374 48.05 Q 43.818 48.644 43.056 48.983 L 43.056 48.983 L 43.056 48.983 Q 42.293 49.322 41.403 49.322 L 41.403 49.322 L 11.598 49.322 L 11.598 49.322 Q 10.454 49.322 9.135 49.034 L 9.135 49.034 L 9.135 49.034 Q 7.817 48.745 6.53 48.135 L 6.53 48.135 L 6.53 48.135 Q 5.243 47.525 4.067 46.558 L 4.067 46.558 L 4.067 46.558 Q 2.892 45.592 1.986 44.218 L 1.986 44.218 L 1.986 44.218 Q 1.08 42.845 0.54 41.031 L 0.54 41.031 L 0.54 41.031 Q 0 39.217 0 36.945 L 0 36.945 L 0 13.072 L 0 13.072 Q 0 11.851 0.27 10.444 L 0.27 10.444 L 0.27 10.444 Q 0.54 9.036 1.112 7.663 L 1.112 7.663 L 1.112 7.663 Q 1.684 6.29 2.606 5.035 L 2.606 5.035 L 2.606 5.035 Q 3.527 3.78 4.814 2.814 L 4.814 2.814 L 4.814 2.814 Q 6.101 1.847 7.785 1.271 L 7.785 1.271 L 7.785 1.271 Q 9.469 0.695 11.598 0.695 L 11.598 0.695 L 45.185 0.695 L 45.185 9.511 L 11.598 9.511 L 11.598 9.511 Q 9.977 9.511 9.12 10.427 L 9.12 10.427 L 9.12 10.427 Q 8.262 11.342 8.262 13.14 L 8.262 13.14 L 8.262 36.945 L 8.262 36.945 Q 8.262 38.64 9.135 39.573 L 9.135 39.573 L 9.135 39.573 Q 10.009 40.505 11.598 40.505 L 11.598 40.505 L 37.304 40.505 L 37.304 29.45 L 15.316 29.45 L 15.316 20.566 L 41.403 20.566 L 41.403 20.566 Q 42.293 20.566 43.056 20.922 L 43.056 20.922 L 43.056 20.922 Q 43.818 21.278 44.374 21.888 L 44.374 21.888 L 44.374 21.888 Q 44.93 22.499 45.248 23.296 L 45.248 23.296 L 45.248 23.296 Q 45.566 24.093 45.566 25.008 L 45.566 25.008 Z "
      fill="rgb(240,10,10)" />
    <path class="M"
      d=" M 101.693 4.459 L 101.693 49.322 L 93.368 49.322 L 93.368 20.362 L 78.72 47.864 L 78.72 47.864 Q 78.179 48.915 77.21 49.457 L 77.21 49.457 L 77.21 49.457 Q 76.241 50 75.129 50 L 75.129 50 L 75.129 50 Q 74.049 50 73.111 49.457 L 73.111 49.457 L 73.111 49.457 Q 72.174 48.915 71.634 47.864 L 71.634 47.864 L 56.922 20.362 L 56.922 49.322 L 48.66 49.322 L 48.66 4.459 L 48.66 4.459 Q 48.66 2.933 49.502 1.746 L 49.502 1.746 L 49.502 1.746 Q 50.344 0.559 51.71 0.152 L 51.71 0.152 L 51.71 0.152 Q 52.378 -0.018 53.045 0.033 L 53.045 0.033 L 53.045 0.033 Q 53.712 0.084 54.332 0.338 L 54.332 0.338 L 54.332 0.338 Q 54.951 0.593 55.46 1.051 L 55.46 1.051 L 55.46 1.051 Q 55.968 1.508 56.318 2.153 L 56.318 2.153 L 75.129 37.046 L 93.94 2.153 L 93.94 2.153 Q 94.671 0.864 95.958 0.322 L 95.958 0.322 L 95.958 0.322 Q 97.245 -0.221 98.643 0.152 L 98.643 0.152 L 98.643 0.152 Q 99.977 0.559 100.835 1.746 L 100.835 1.746 L 100.835 1.746 Q 101.693 2.933 101.693 4.459 L 101.693 4.459 Z "
      fill="rgb(240,10,10)" />
    <path class="P"
      d=" M 150.133 17.039 L 150.133 21.041 L 150.133 21.041 Q 150.133 24.059 149.434 26.432 L 149.434 26.432 L 149.434 26.432 Q 148.735 28.806 147.543 30.62 L 147.543 30.62 L 147.543 30.62 Q 146.351 32.435 144.794 33.723 L 144.794 33.723 L 144.794 33.723 Q 143.237 35.012 141.537 35.826 L 141.537 35.826 L 141.537 35.826 Q 139.837 36.639 138.106 37.012 L 138.106 37.012 L 138.106 37.012 Q 136.374 37.385 134.849 37.385 L 134.849 37.385 L 116.165 37.385 L 116.165 28.569 L 134.849 28.569 L 134.849 28.569 Q 136.437 28.433 137.724 27.874 L 137.724 27.874 L 137.724 27.874 Q 139.011 27.314 139.933 26.365 L 139.933 26.365 L 139.933 26.365 Q 140.854 25.415 141.363 24.076 L 141.363 24.076 L 141.363 24.076 Q 141.871 22.736 141.871 21.041 L 141.871 21.041 L 141.871 17.039 L 141.871 17.039 Q 141.712 15.378 141.204 13.987 L 141.204 13.987 L 141.204 13.987 Q 140.695 12.597 139.821 11.614 L 139.821 11.614 L 139.821 11.614 Q 138.948 10.63 137.708 10.071 L 137.708 10.071 L 137.708 10.071 Q 136.469 9.511 134.849 9.511 L 134.849 9.511 L 116.228 9.511 L 116.228 9.511 Q 114.576 9.511 113.718 10.427 L 113.718 10.427 L 113.718 10.427 Q 112.86 11.342 112.86 13.072 L 112.86 13.072 L 112.86 49.322 L 104.598 49.322 L 104.598 13.072 L 104.598 13.072 Q 104.598 9.681 105.758 7.307 L 105.758 7.307 L 105.758 7.307 Q 106.918 4.933 108.65 3.475 L 108.65 3.475 L 108.65 3.475 Q 110.382 2.017 112.415 1.356 L 112.415 1.356 L 112.415 1.356 Q 114.449 0.695 116.165 0.695 L 116.165 0.695 L 134.849 0.695 L 134.849 0.695 Q 137.645 0.695 139.869 1.458 L 139.869 1.458 L 139.869 1.458 Q 142.093 2.22 143.793 3.492 L 143.793 3.492 L 143.793 3.492 Q 145.493 4.764 146.685 6.425 L 146.685 6.425 L 146.685 6.425 Q 147.877 8.087 148.655 9.901 L 148.655 9.901 L 148.655 9.901 Q 149.434 11.715 149.783 13.563 L 149.783 13.563 L 149.783 13.563 Q 150.133 15.412 150.133 17.039 L 150.133 17.039 Z "
      fill="rgb(0 0 0)" />
    <path class="a"
      d=" M 188.123 24.805 L 188.123 37.182 L 188.123 37.182 Q 188.123 39.013 187.519 41.132 L 187.519 41.132 L 187.519 41.132 Q 186.915 43.252 185.565 45.066 L 185.565 45.066 L 185.565 45.066 Q 184.214 46.88 182.038 48.101 L 182.038 48.101 L 182.038 48.101 Q 179.861 49.322 176.747 49.322 L 176.747 49.322 L 161.844 49.322 L 161.844 49.322 Q 160.128 49.322 158.142 48.678 L 158.142 48.678 L 158.142 48.678 Q 156.156 48.033 154.456 46.592 L 154.456 46.592 L 154.456 46.592 Q 152.756 45.151 151.613 42.828 L 151.613 42.828 L 151.613 42.828 Q 150.469 40.505 150.469 37.182 L 150.469 37.182 L 150.469 37.182 Q 150.469 35.351 151.072 33.214 L 151.072 33.214 L 151.072 33.214 Q 151.676 31.078 153.027 29.264 L 153.027 29.264 L 153.027 29.264 Q 154.377 27.45 156.554 26.229 L 156.554 26.229 L 156.554 26.229 Q 158.73 25.008 161.844 25.008 L 161.844 25.008 L 176.747 25.008 L 176.747 33.418 L 161.844 33.418 L 161.844 33.418 Q 160.16 33.418 159.239 34.52 L 159.239 34.52 L 159.239 34.52 Q 158.317 35.622 158.317 37.25 L 158.317 37.25 L 158.317 37.25 Q 158.317 38.979 159.382 39.946 L 159.382 39.946 L 159.382 39.946 Q 160.446 40.912 161.908 40.912 L 161.908 40.912 L 176.747 40.912 L 176.747 40.912 Q 178.431 40.912 179.353 39.827 L 179.353 39.827 L 179.353 39.827 Q 180.274 38.742 180.274 37.114 L 180.274 37.114 L 180.274 24.805 L 180.274 24.805 Q 180.274 23.075 179.273 22.058 L 179.273 22.058 L 179.273 22.058 Q 178.272 21.041 176.747 21.041 L 176.747 21.041 L 158.603 21.041 L 158.603 12.665 L 176.747 12.665 L 176.747 12.665 Q 178.463 12.665 180.449 13.309 L 180.449 13.309 L 180.449 13.309 Q 182.435 13.953 184.135 15.395 L 184.135 15.395 L 184.135 15.395 Q 185.835 16.836 186.979 19.159 L 186.979 19.159 L 186.979 19.159 Q 188.123 21.482 188.123 24.805 L 188.123 24.805 Z "
      fill="rgb(0 0 0)" />
    <path class="r"
      d=" M 224.269 12.665 L 224.269 21.482 L 205.681 21.482 L 205.681 21.482 Q 203.997 21.482 203.139 22.38 L 203.139 22.38 L 203.139 22.38 Q 202.281 23.279 202.281 25.008 L 202.281 25.008 L 202.281 49.322 L 194.019 49.322 L 194.019 25.008 L 194.019 25.008 Q 194.019 22.736 194.559 20.939 L 194.559 20.939 L 194.559 20.939 Q 195.099 19.142 196.005 17.768 L 196.005 17.768 L 196.005 17.768 Q 196.911 16.395 198.086 15.429 L 198.086 15.429 L 198.086 15.429 Q 199.262 14.462 200.549 13.852 L 200.549 13.852 L 200.549 13.852 Q 201.836 13.241 203.155 12.953 L 203.155 12.953 L 203.155 12.953 Q 204.473 12.665 205.617 12.665 L 205.617 12.665 L 224.269 12.665 Z "
      fill="rgb(0 0 0)" />
    <path class="t"
      d=" M 261.988 12.665 L 261.988 21.482 L 247.562 21.482 L 247.562 49.322 L 239.205 49.322 L 239.205 21.482 L 228.465 21.482 L 228.465 12.665 L 239.205 12.665 L 239.205 0.695 L 247.562 0.695 L 247.562 12.665 L 261.988 12.665 Z "
      fill="rgb(0 0 0)" />
    <path class="s"
      d=" M 300 36.945 L 300 36.945 L 300 36.945 Q 300 39.217 299.46 41.031 L 299.46 41.031 L 299.46 41.031 Q 298.92 42.845 298.03 44.218 L 298.03 44.218 L 298.03 44.218 Q 297.14 45.592 295.965 46.558 L 295.965 46.558 L 295.965 46.558 Q 294.789 47.525 293.502 48.135 L 293.502 48.135 L 293.502 48.135 Q 292.215 48.745 290.896 49.034 L 290.896 49.034 L 290.896 49.034 Q 289.578 49.322 288.402 49.322 L 288.402 49.322 L 266.032 49.322 L 266.032 40.505 L 288.338 40.505 L 288.338 40.505 Q 290.023 40.505 290.88 39.59 L 290.88 39.59 L 290.88 39.59 Q 291.738 38.674 291.738 36.945 L 291.738 36.945 L 291.738 36.945 Q 291.58 33.418 288.402 33.418 L 288.402 33.418 L 275.596 33.418 L 275.596 33.418 Q 272.864 33.418 270.957 32.401 L 270.957 32.401 L 270.957 32.401 Q 269.051 31.383 267.859 29.857 L 267.859 29.857 L 267.859 29.857 Q 266.668 28.331 266.143 26.568 L 266.143 26.568 L 266.143 26.568 Q 265.619 24.805 265.619 23.279 L 265.619 23.279 L 265.619 23.279 Q 265.619 20.329 266.604 18.311 L 266.604 18.311 L 266.604 18.311 Q 267.589 16.293 269.082 15.039 L 269.082 15.039 L 269.082 15.039 Q 270.576 13.784 272.324 13.224 L 272.324 13.224 L 272.324 13.224 Q 274.071 12.665 275.596 12.665 L 275.596 12.665 L 295.901 12.665 L 295.901 21.482 L 275.66 21.482 L 275.66 21.482 Q 275.024 21.482 274.659 21.634 L 274.659 21.634 L 274.659 21.634 Q 274.294 21.787 274.119 22.041 L 274.119 22.041 L 274.119 22.041 Q 273.944 22.295 273.912 22.584 L 273.912 22.584 L 273.912 22.584 Q 273.881 22.872 273.881 23.143 L 273.881 23.143 L 273.881 23.143 Q 273.912 23.686 274.071 23.991 L 274.071 23.991 L 274.071 23.991 Q 274.23 24.296 274.468 24.432 L 274.468 24.432 L 274.468 24.432 Q 274.707 24.567 275.009 24.584 L 275.009 24.584 L 275.009 24.584 Q 275.31 24.601 275.596 24.601 L 275.596 24.601 L 288.402 24.601 L 288.402 24.601 Q 291.58 24.601 293.804 25.822 L 293.804 25.822 L 293.804 25.822 Q 296.028 27.043 297.394 28.891 L 297.394 28.891 L 297.394 28.891 Q 298.761 30.739 299.38 32.909 L 299.38 32.909 L 299.38 32.909 Q 300 35.08 300 36.945 Z "
      fill="rgb(0 0 0)" />
  </g>
</svg>